<?xml version="1.0" standalone="no"?>
<!DOCTYPE svg PUBLIC "-//W3C//DTD SVG 20010904//EN"
 "http://www.w3.org/TR/2001/REC-SVG-20010904/DTD/svg10.dtd">
<svg version="1.0" xmlns="http://www.w3.org/2000/svg"
 width="343.000000pt" height="343.000000pt" viewBox="0 0 343.000000 343.000000"
 preserveAspectRatio="xMidYMid meet">
<metadata>
Created by potrace 1.14, written by Peter Selinger 2001-2017
</metadata>
<g transform="translate(0.000000,343.000000) scale(0.100000,-0.100000)"
fill="#000000" stroke="none">
<path d="M1508 2829 l-238 -119 0 -125 0 -125 140 70 c77 38 142 70 145 70 3
0 6 -395 7 -877 l3 -878 95 0 95 0 5 1006 5 1007 190 -95 c105 -52 194 -99
200 -104 5 -5 9 -60 10 -121 l0 -112 33 -19 c18 -11 36 -17 39 -14 3 4 6 75 7
159 l0 153 -239 122 c-132 67 -244 122 -250 122 -5 0 -117 -54 -247 -120z"/>
<path d="M1243 2361 c-176 -87 -243 -126 -244 -138 -4 -77 -3 -267 1 -274 10
-16 70 29 71 53 0 13 1 59 1 103 l0 80 162 82 c88 45 164 82 169 82 4 1 7
-339 7 -754 l0 -755 35 0 c20 0 38 6 40 12 3 7 4 377 3 821 l-3 809 -242 -121z"/>
<path d="M1834 2467 c-2 -7 -3 -374 -2 -817 l3 -805 98 -3 97 -3 0 636 c0 349
3 635 6 635 4 0 69 -32 145 -70 86 -44 139 -66 140 -58 1 17 1 230 0 245 -1
19 -481 255 -487 240z"/>
<path d="M1040 1906 l-205 -111 -1 -478 c-1 -263 -4 -481 -8 -484 -3 -3 -43
-18 -89 -33 -45 -14 -91 -32 -102 -39 -18 -11 -16 -12 15 -6 219 38 288 48
430 61 91 9 166 17 168 18 1 2 1 268 0 593 l-3 589 -205 -110z"/>
<path d="M2096 1992 c-2 -4 -4 -264 -4 -577 0 -425 3 -572 11 -577 7 -4 24 -8
40 -8 l27 0 0 520 c0 286 2 520 5 520 3 0 80 -37 170 -82 l165 -83 -2 -448 c0
-246 1 -450 4 -452 2 -3 54 -14 114 -24 60 -11 125 -23 144 -26 57 -10 10 14
-87 45 -46 15 -86 30 -89 33 -4 4 -7 206 -6 449 0 244 -2 451 -5 461 -5 20
-479 262 -487 249z"/>
<path d="M2220 1585 l0 -50 55 -1 55 0 0 48 c0 26 -3 48 -7 49 -5 1 -29 2 -55
3 l-48 1 0 -50z"/>
<path d="M2355 1631 c-11 -11 -4 -91 8 -92 6 -1 31 -2 55 -3 l43 -2 -3 50 -3
51 -48 0 c-26 1 -50 -1 -52 -4z"/>
<path d="M2220 1460 l0 -50 55 0 55 0 0 50 0 50 -55 0 -55 0 0 -50z"/>
<path d="M2350 1460 l0 -50 55 0 55 0 0 50 0 50 -55 0 -55 0 0 -50z"/>
<path d="M1510 793 c-307 -13 -634 -53 -837 -103 -115 -28 -289 -87 -281 -96
3 -2 51 6 109 17 331 64 635 90 1129 94 494 4 722 -8 1090 -61 96 -14 208 -33
248 -43 39 -10 72 -16 72 -15 0 9 -85 45 -170 72 -177 56 -430 99 -725 122
-132 10 -516 18 -635 13z"/>
</g>
</svg>
